<?xml version="1.0" encoding="UTF-8" standalone="no"?>
<!-- Created with Inkscape (http://www.inkscape.org/) -->

<svg
   width="45.02mm"
   height="45.02mm"
   viewBox="0 0 170.15433 170.15434"
   version="1.1"
   id="svg1"
   xml:space="preserve"
   sodipodi:docname="icon-nobg.svg"
   inkscape:version="1.3.2 (091e20e, 2023-11-25, custom)"
   xmlns:inkscape="http://www.inkscape.org/namespaces/inkscape"
   xmlns:sodipodi="http://sodipodi.sourceforge.net/DTD/sodipodi-0.dtd"
   xmlns="http://www.w3.org/2000/svg"
   xmlns:svg="http://www.w3.org/2000/svg"><sodipodi:namedview
     id="namedview1"
     pagecolor="#9f9f9f"
     bordercolor="#000000"
     borderopacity="0.61176471"
     inkscape:showpageshadow="2"
     inkscape:pageopacity="0.0"
     inkscape:pagecheckerboard="true"
     inkscape:deskcolor="#d1d1d1"
     inkscape:document-units="mm"
     showguides="true"
     inkscape:zoom="2.9257105"
     inkscape:cx="42.724665"
     inkscape:cy="97.241337"
     inkscape:window-width="1920"
     inkscape:window-height="1017"
     inkscape:window-x="-8"
     inkscape:window-y="-8"
     inkscape:window-maximized="1"
     inkscape:current-layer="layer1"><sodipodi:guide
       position="110.69274,488.93322"
       orientation="0,-1"
       id="guide1"
       inkscape:locked="false" /><sodipodi:guide
       position="145.97907,509.71832"
       orientation="0,-1"
       id="guide2"
       inkscape:locked="false" /><sodipodi:guide
       position="113.59299,525.91137"
       orientation="0,-1"
       id="guide3"
       inkscape:locked="false" /><sodipodi:guide
       position="141.6287,582.70786"
       orientation="0,-1"
       id="guide4"
       inkscape:locked="false" /><sodipodi:guide
       position="170.14779,637.08748"
       orientation="0,-1"
       id="guide7"
       inkscape:locked="false" /><sodipodi:guide
       position="170.14779,697.50928"
       orientation="1,0"
       id="guide8"
       inkscape:locked="false" /></sodipodi:namedview><defs
     id="defs1" /><g
     inkscape:label="Layer 1"
     inkscape:groupmode="layer"
     id="layer1"><path
       style="font-size:143.881px;font-family:'Comic Sans MS';-inkscape-font-specification:'Comic Sans MS';stroke-width:3.37219;stroke-linecap:round;stroke-linejoin:round;paint-order:stroke fill markers"
       d="m 80.864628,117.13601 q -6.463404,0 -11.240703,-16.58004 -1.826614,-6.322897 -4.566536,-22.130135 -7.165948,0.983562 -18.757923,3.51272 l -18.687668,3.863991 q -3.51272,9.203326 -12.013501,26.907434 -2.248141,3.93424 -6.1121325,3.93424 -2.8101757,0 -5.0583163,-2.03737 -2.1778861,-2.03738 -2.1778861,-5.05832 0,-3.37221 10.6084129,-25.642852 -1.194324,-1.826615 -1.194324,-4.215264 0,-5.690606 6.88493,-7.306457 8.009001,-15.03444 20.233265,-34.565161 16.650291,-26.626415 20.725046,-26.626415 5.550097,0 7.587475,7.727983 l 4.426026,23.605476 10.467905,48.826803 4.0045,11.100197 q 2.037378,5.6906 2.037378,7.58747 0,3.02094 -2.177886,5.05832 -2.177887,2.03738 -4.988062,2.03738 z M 56.064827,36.835234 35.972071,69.22251 q 8.500781,-2.177887 25.783362,-5.26908 z"
       id="text1"
       aria-label="A" /><path
       d="m 127.04375,159.79584 q -19.95225,0 -29.366334,-14.75342 -1.264579,-2.03738 -1.264579,-3.93425 0,-2.73992 2.177886,-4.70704 2.177887,-2.03738 4.917807,-2.03738 2.88043,0 5.47984,3.09119 3.72349,4.49628 5.62035,5.76086 4.56654,3.0912 12.43503,3.0912 12.15401,0 20.16301,-9.27358 7.65773,-8.85206 7.65773,-21.28709 0,-10.25714 -3.37221,-16.650287 -4.35577,-8.079255 -13.41859,-8.079255 -7.51722,0 -12.29452,2.037377 -3.79373,1.615852 -7.65773,5.550098 l -7.65772,8.360277 q -3.0912,3.16144 -6.3229,3.16144 -2.81018,0 -4.777299,-1.96712 -1.967123,-2.03738 -1.967123,-4.84755 0,-1.40509 1.124071,-12.505285 2.388651,-22.130134 2.388651,-29.085319 0,-2.458904 -1.264581,-5.339334 -1.194325,-2.950684 -1.194325,-4.355772 0,-4.285518 7.376716,-4.285518 1.40508,0 4.21526,0.281018 2.88043,0.210763 4.28552,0.210763 4.07475,0 12.22426,-0.281018 8.14951,-0.281017 12.22427,-0.281017 1.89686,0 5.76086,0.140508 3.86399,0.140509 5.76086,0.140509 1.33483,0 3.86399,-0.491781 2.52916,-0.562035 3.79374,-0.562035 2.73992,0 4.84755,2.037378 2.10763,2.037377 2.10763,4.707044 0,7.868492 -16.65029,7.868492 -2.17789,0 -5.47984,-0.140509 -3.30196,-0.140509 -4.0045,-0.140509 l -11.873,0.210764 -11.87299,0.351272 q 0,3.161447 -2.59941,23.394712 9.62485,-7.657728 25.64285,-7.657728 15.45597,0 23.60548,12.083755 6.88493,10.257142 6.88493,26.13463 0,18.96869 -11.1002,31.26321 -11.52172,12.7863 -30.42015,12.7863 z"
       id="text2"
       style="font-size:143.881px;font-family:'Comic Sans MS';-inkscape-font-specification:'Comic Sans MS';stroke-width:3.37219;stroke-linecap:round;stroke-linejoin:round;paint-order:stroke fill markers"
       aria-label="5" /></g></svg>
