<?xml version="1.0" encoding="UTF-8" standalone="no"?>
<!-- Created with Inkscape (http://www.inkscape.org/) -->

<svg
   width="45.02mm"
   height="45.02mm"
   viewBox="0 0 170.15433 170.15434"
   version="1.1"
   id="svg1"
   xml:space="preserve"
   inkscape:version="1.3.2 (091e20e, 2023-11-25, custom)"
   sodipodi:docname="icon-roundbg.svg"
   xmlns:inkscape="http://www.inkscape.org/namespaces/inkscape"
   xmlns:sodipodi="http://sodipodi.sourceforge.net/DTD/sodipodi-0.dtd"
   xmlns:xlink="http://www.w3.org/1999/xlink"
   xmlns="http://www.w3.org/2000/svg"
   xmlns:svg="http://www.w3.org/2000/svg"><sodipodi:namedview
     id="namedview1"
     pagecolor="#9f9f9f"
     bordercolor="#000000"
     borderopacity="0.61176471"
     inkscape:showpageshadow="2"
     inkscape:pageopacity="0.0"
     inkscape:pagecheckerboard="true"
     inkscape:deskcolor="#d1d1d1"
     inkscape:document-units="mm"
     showguides="true"
     inkscape:zoom="2.9257105"
     inkscape:cx="43.408259"
     inkscape:cy="69.213957"
     inkscape:window-width="1920"
     inkscape:window-height="1017"
     inkscape:window-x="-8"
     inkscape:window-y="-8"
     inkscape:window-maximized="1"
     inkscape:current-layer="layer1"><sodipodi:guide
       position="110.69274,488.93322"
       orientation="0,-1"
       id="guide1"
       inkscape:locked="false" /><sodipodi:guide
       position="145.97907,509.71832"
       orientation="0,-1"
       id="guide2"
       inkscape:locked="false" /><sodipodi:guide
       position="113.59299,525.91137"
       orientation="0,-1"
       id="guide3"
       inkscape:locked="false" /><sodipodi:guide
       position="141.6287,582.70786"
       orientation="0,-1"
       id="guide4"
       inkscape:locked="false" /><sodipodi:guide
       position="170.14779,637.08748"
       orientation="0,-1"
       id="guide7"
       inkscape:locked="false" /><sodipodi:guide
       position="170.14779,697.50928"
       orientation="1,0"
       id="guide8"
       inkscape:locked="false" /><sodipodi:guide
       position="85.073897,250.3945"
       orientation="1,0"
       id="guide5"
       inkscape:locked="false" /></sodipodi:namedview><defs
     id="defs1"><linearGradient
       id="linearGradient8"
       inkscape:collect="always"><stop
         style="stop-color:#f8f8f8;stop-opacity:1;"
         offset="0.73410881"
         id="stop8" /><stop
         style="stop-color:#cccccc;stop-opacity:1;"
         offset="1"
         id="stop9" /></linearGradient><linearGradient
       inkscape:collect="always"
       xlink:href="#linearGradient8"
       id="linearGradient9"
       x1="0"
       y1="85.077168"
       x2="170.15432"
       y2="85.077168"
       gradientUnits="userSpaceOnUse"
       gradientTransform="translate(0.02106505,-170.13329)" /></defs><g
     inkscape:label="Layer 1"
     inkscape:groupmode="layer"
     id="layer1"><rect
       style="fill:url(#linearGradient9);fill-opacity:1;stroke-width:2.00001;stroke-linecap:round;stroke-linejoin:round;paint-order:stroke fill markers"
       id="rect8"
       width="170.15433"
       height="170.15434"
       x="0.021064762"
       y="-170.13326"
       rx="188.97638"
       transform="rotate(89.98582)" /><path
       style="font-size:85.3333px;font-family:'Comic Sans MS';-inkscape-font-specification:'Comic Sans MS';stroke-width:2;stroke-linecap:round;stroke-linejoin:round;paint-order:stroke fill markers"
       d="m 81.76364,101.25327 q -3.833332,0 -6.666664,-9.833327 -1.083333,-3.749998 -2.708332,-13.124994 -4.249998,0.583333 -11.124995,2.083332 L 50.18032,82.669947 q -2.083333,5.458331 -7.124997,15.958327 -1.333333,2.333336 -3.624999,2.333336 -1.666666,0 -2.999998,-1.208337 -1.291667,-1.208333 -1.291667,-2.999999 0,-1.999999 6.291664,-15.208327 -0.708333,-1.083333 -0.708333,-2.499999 0,-3.374998 4.083332,-4.333331 4.749998,-8.916663 11.999995,-20.499992 9.874996,-15.79166 12.291662,-15.79166 3.291665,0 4.499998,4.583332 l 2.624999,13.999994 6.20833,28.958321 2.374999,6.583331 q 1.208333,3.374998 1.208333,4.499998 0,1.791666 -1.291666,2.999999 -1.291666,1.20833 -2.958332,1.20833 z M 67.055313,53.628292 55.138651,72.836618 q 5.041665,-1.291666 15.29166,-3.124999 z"
       id="text1"
       aria-label="A" /><path
       d="m 109.15176,126.5541 q -11.833332,0 -17.416663,-8.75 -0.749999,-1.20833 -0.749999,-2.33333 0,-1.625 1.291666,-2.79167 1.291666,-1.20833 2.916665,-1.20833 1.708333,0 3.249999,1.83333 2.208332,2.66667 3.333332,3.41667 2.70833,1.83333 7.375,1.83333 7.20833,0 11.95833,-5.5 4.54166,-5.24999 4.54166,-12.62499 0,-6.083331 -2,-9.874996 -2.58333,-4.791665 -7.95833,-4.791665 -4.45833,0 -7.29166,1.208333 -2.25,0.958333 -4.54167,3.291665 l -4.541663,4.958332 q -1.833332,1.874999 -3.749998,1.874999 -1.666666,0 -2.833332,-1.166666 -1.166666,-1.208333 -1.166666,-2.874999 0,-0.833333 0.666666,-7.416664 1.416666,-13.124994 1.416666,-17.249992 0,-1.458333 -0.75,-3.166666 -0.708333,-1.749999 -0.708333,-2.583332 0,-2.541666 4.374999,-2.541666 0.833333,0 2.499999,0.166667 1.708332,0.125 2.541662,0.125 2.41667,0 7.25,-0.166667 4.83333,-0.166666 7.25,-0.166666 1.125,0 3.41666,0.08333 2.29167,0.08333 3.41667,0.08333 0.79166,0 2.29166,-0.291666 1.5,-0.333333 2.25,-0.333333 1.625,0 2.875,1.208332 1.25,1.208333 1.25,2.791666 0,4.666665 -9.875,4.666665 -1.29166,0 -3.24999,-0.08333 -1.95834,-0.08333 -2.375,-0.08333 l -7.04167,0.125 -7.04166,0.208333 q 0,1.874999 -1.54167,13.874994 5.70833,-4.541664 15.20833,-4.541664 9.16666,0 13.99999,7.166663 4.08334,6.083331 4.08334,15.499994 0,11.25 -6.58333,18.54166 -6.83333,7.58333 -18.04166,7.58333 z"
       id="text2"
       style="font-size:85.3333px;font-family:'Comic Sans MS';-inkscape-font-specification:'Comic Sans MS';stroke-width:2;stroke-linecap:round;stroke-linejoin:round;paint-order:stroke fill markers"
       aria-label="5" /></g></svg>
