<?xml version="1.0" encoding="UTF-8" standalone="no"?>
<!-- Created with Inkscape (http://www.inkscape.org/) -->

<svg
   width="45.02mm"
   height="45.02mm"
   viewBox="0 0 170.15433 170.15434"
   version="1.1"
   id="svg1"
   xml:space="preserve"
   sodipodi:docname="icon-silhouette.svg"
   inkscape:version="1.3.2 (091e20e, 2023-11-25, custom)"
   xmlns:inkscape="http://www.inkscape.org/namespaces/inkscape"
   xmlns:sodipodi="http://sodipodi.sourceforge.net/DTD/sodipodi-0.dtd"
   xmlns="http://www.w3.org/2000/svg"
   xmlns:svg="http://www.w3.org/2000/svg"><sodipodi:namedview
     id="namedview1"
     pagecolor="#9f9f9f"
     bordercolor="#000000"
     borderopacity="0.61176471"
     inkscape:showpageshadow="2"
     inkscape:pageopacity="0.0"
     inkscape:pagecheckerboard="true"
     inkscape:deskcolor="#d1d1d1"
     inkscape:document-units="mm"
     showguides="true"
     inkscape:zoom="2.9257105"
     inkscape:cx="42.724665"
     inkscape:cy="97.583134"
     inkscape:window-width="1920"
     inkscape:window-height="1129"
     inkscape:window-x="-8"
     inkscape:window-y="-8"
     inkscape:window-maximized="1"
     inkscape:current-layer="layer1"><sodipodi:guide
       position="110.69274,488.93322"
       orientation="0,-1"
       id="guide1"
       inkscape:locked="false" /><sodipodi:guide
       position="145.97907,509.71832"
       orientation="0,-1"
       id="guide2"
       inkscape:locked="false" /><sodipodi:guide
       position="113.59299,525.91137"
       orientation="0,-1"
       id="guide3"
       inkscape:locked="false" /><sodipodi:guide
       position="141.6287,582.70786"
       orientation="0,-1"
       id="guide4"
       inkscape:locked="false" /><sodipodi:guide
       position="170.14779,637.08748"
       orientation="0,-1"
       id="guide7"
       inkscape:locked="false" /><sodipodi:guide
       position="170.14779,697.50928"
       orientation="1,0"
       id="guide8"
       inkscape:locked="false" /></sodipodi:namedview><defs
     id="defs1">
   
  </defs><g
     inkscape:label="Layer 1"
     inkscape:groupmode="layer"
     id="layer1"><path
       id="rect2"
       style="clip-rule:evenodd;fill:#165279;fill-rule:evenodd;stroke-width:0.0750478;image-rendering:optimizeQuality;shape-rendering:geometricPrecision;text-rendering:geometricPrecision"
       class="fil0"
       d="M 14.355469 6.6855472 C 6.402738 6.6855472 -1.1842368e-15 13.086331 0 21.039063 L 0 149.11524 C -1.1842356e-15 157.06797 6.402738 163.46876 14.355469 163.46876 L 155.79884 163.46876 C 163.75157 163.46876 170.1543 157.06797 170.1543 149.11524 L 170.1543 21.039063 C 170.1543 13.086331 163.75157 6.6855472 155.79884 6.6855472 L 14.355469 6.6855472 z M 68.957034 29.056642 C 71.616548 29.056642 73.435838 30.908214 74.412113 34.61133 L 77.5918 51.578127 L 85.117191 86.673832 L 87.994145 94.652348 C 88.970419 97.379188 89.458988 99.198476 89.458988 100.10743 C 89.458988 101.555 88.938138 102.76591 87.894535 103.74219 C 86.850928 104.71847 85.655181 105.20704 84.308598 105.20704 C 81.211447 105.20704 78.517717 101.23393 76.228519 93.289067 C 75.353239 90.259244 74.260192 84.957368 72.947269 77.382816 C 69.513469 77.85412 65.019517 78.696277 59.464846 79.908207 L 46.031252 82.685551 C 44.348019 87.095619 41.469911 93.541892 37.396486 102.0254 C 36.319212 103.91061 34.855463 104.85352 33.003908 104.85352 C 31.657318 104.85352 30.444458 104.36495 29.367189 103.38868 C 28.323586 102.4124 27.802736 101.2015 27.802736 99.753911 C 27.802736 98.13801 30.34437 91.993973 35.427736 81.322269 C 34.855433 80.446984 34.568361 79.437569 34.568361 78.292972 C 34.568361 75.566132 36.218441 73.815305 39.51758 73.041019 C 43.355355 65.836776 48.202897 57.554094 54.060549 48.195315 C 62.039078 35.436401 67.004485 29.056642 68.957034 29.056642 z M 66.482425 47.488283 L 52.041018 70.767581 C 56.114443 69.723979 62.292711 68.461716 70.574222 66.980472 L 66.482425 47.488283 z M 134.72657 59.947268 C 136.03949 59.947268 137.201 60.435832 138.21094 61.412112 C 139.22089 62.388388 139.72657 63.515667 139.72657 64.794925 C 139.72657 68.565372 135.73635 70.451175 127.75782 70.451175 C 126.71421 70.451175 125.40256 70.41694 123.82032 70.349613 C 122.23807 70.282285 121.27806 70.250003 120.94141 70.250003 L 112.40626 70.400394 L 103.87305 70.6543 C 103.87305 72.169213 103.24951 77.773321 102.00391 87.468754 C 106.61598 83.799301 112.76 81.964847 120.43555 81.964847 C 127.84179 81.964847 133.49724 84.860064 137.40235 90.650395 C 140.70149 95.565444 142.35157 101.82733 142.35157 109.43555 C 142.35157 118.52502 139.69208 126.01493 134.37305 131.90626 C 128.85204 138.03324 121.56362 141.09766 112.50782 141.09766 C 102.94704 141.09766 95.911467 137.56178 91.400395 130.49219 C 90.79443 129.51591 90.492192 128.57301 90.492192 127.66407 C 90.492192 126.35114 91.013036 125.22387 92.056645 124.28126 C 93.100253 123.30498 94.278882 122.81641 95.591801 122.81641 C 96.972054 122.81641 98.283705 123.55782 99.529301 125.03907 C 101.31353 127.19361 102.66137 128.57373 103.57032 129.17969 C 105.75852 130.66094 108.73737 131.40235 112.50782 131.40235 C 118.33181 131.40235 123.16223 129.18008 127.00001 124.73633 C 130.66946 120.49458 132.50391 115.39421 132.50391 109.43555 C 132.50391 104.52051 131.69599 100.53029 130.08008 97.466801 C 127.99287 93.595355 124.7783 91.66016 120.43555 91.66016 C 116.83343 91.66016 113.88881 92.148724 111.59961 93.125004 C 109.78172 93.899291 107.94727 95.228062 106.09571 97.113286 L 100.58985 103.12305 C 99.108602 104.63796 97.595459 105.39649 96.046879 105.39649 C 94.700293 105.39649 93.553946 104.92504 92.611332 103.98243 C 91.668723 103.00615 91.19727 101.84464 91.19727 100.49805 C 91.19727 99.824758 91.467231 96.828796 92.005863 91.50977 C 93.150466 80.905389 93.72266 73.936327 93.72266 70.603519 C 93.72266 69.425255 93.420422 68.14588 92.814457 66.765628 C 92.242158 65.351709 91.955082 64.308061 91.955082 63.634768 C 91.955082 61.581218 93.723025 60.55469 97.257817 60.55469 C 97.93111 60.55469 98.940523 60.621201 100.28711 60.755862 C 101.66737 60.856856 102.6939 60.908206 103.36719 60.908206 C 105.31975 60.908206 108.24919 60.839741 112.1543 60.705081 C 116.0594 60.570425 118.98886 60.503909 120.94141 60.503909 C 121.85036 60.503909 123.23048 60.538144 125.08204 60.605471 C 126.9336 60.672799 128.31372 60.705081 129.22266 60.705081 C 129.86229 60.705081 130.78808 60.587215 132.00001 60.351565 C 133.21194 60.082244 134.1206 59.947268 134.72657 59.947268 z " /><g
       transform="matrix(0.07504778,0,0,0.07504778,-578.5987,-245.98886)"
       id="g2"
       style="clip-rule:evenodd;fill-rule:evenodd;image-rendering:optimizeQuality;shape-rendering:geometricPrecision;text-rendering:geometricPrecision">
   
  </g><g
       transform="matrix(0.07504778,0,0,0.07504778,-471.22495,-256.08514)"
       id="g3"
       style="clip-rule:evenodd;fill-rule:evenodd;image-rendering:optimizeQuality;shape-rendering:geometricPrecision;text-rendering:geometricPrecision">
   <g
   id="g4" />
  </g></g></svg>
