<?xml version="1.0" encoding="UTF-8" standalone="no"?>
<!-- Created with Inkscape (http://www.inkscape.org/) -->

<svg
   width="45.02mm"
   height="45.02mm"
   viewBox="0 0 170.15433 170.15434"
   version="1.1"
   id="svg1"
   xml:space="preserve"
   sodipodi:docname="icon-silhouette.svg"
   inkscape:version="1.3.2 (091e20e, 2023-11-25, custom)"
   xmlns:inkscape="http://www.inkscape.org/namespaces/inkscape"
   xmlns:sodipodi="http://sodipodi.sourceforge.net/DTD/sodipodi-0.dtd"
   xmlns="http://www.w3.org/2000/svg"
   xmlns:svg="http://www.w3.org/2000/svg"><sodipodi:namedview
     id="namedview1"
     pagecolor="#9f9f9f"
     bordercolor="#000000"
     borderopacity="0.61176471"
     inkscape:showpageshadow="2"
     inkscape:pageopacity="0.0"
     inkscape:pagecheckerboard="true"
     inkscape:deskcolor="#d1d1d1"
     inkscape:document-units="mm"
     showguides="true"
     inkscape:zoom="2.9257105"
     inkscape:cx="42.895563"
     inkscape:cy="97.583134"
     inkscape:window-width="1920"
     inkscape:window-height="1129"
     inkscape:window-x="-8"
     inkscape:window-y="-8"
     inkscape:window-maximized="1"
     inkscape:current-layer="layer1"><sodipodi:guide
       position="110.69274,488.93322"
       orientation="0,-1"
       id="guide1"
       inkscape:locked="false" /><sodipodi:guide
       position="145.97907,509.71832"
       orientation="0,-1"
       id="guide2"
       inkscape:locked="false" /><sodipodi:guide
       position="113.59299,525.91137"
       orientation="0,-1"
       id="guide3"
       inkscape:locked="false" /><sodipodi:guide
       position="141.6287,582.70786"
       orientation="0,-1"
       id="guide4"
       inkscape:locked="false" /><sodipodi:guide
       position="170.14779,637.08748"
       orientation="0,-1"
       id="guide7"
       inkscape:locked="false" /><sodipodi:guide
       position="170.14779,697.50928"
       orientation="1,0"
       id="guide8"
       inkscape:locked="false" /></sodipodi:namedview><defs
     id="defs1">
   
  </defs><g
     inkscape:label="Layer 1"
     inkscape:groupmode="layer"
     id="layer1"><path
       id="rect8"
       style="fill:#165279;stroke-width:1.99968;stroke-linecap:round;stroke-linejoin:round;paint-order:stroke fill markers"
       d="M 0.034332634 -138.72461 L 0.033158452 -31.386713 C 0.033158452 -13.993688 14.036663 0.007778461 31.429688 0.007778461 L 138.76759 0.0069995179 C 156.16061 0.0069995179 170.16208 -13.994552 170.16208 -31.387577 L 170.16325 -138.72548 C 170.16325 -156.1185 156.15976 -170.11997 138.76672 -170.11997 L 31.428824 -170.11919 C 14.035799 -170.11919 0.034332634 -156.11763 0.034332634 -138.72461 z M 25.823475 -68.015099 C 25.824172 -70.828923 27.783622 -72.753179 31.701857 -73.785128 L 49.653862 -77.14592 L 86.788645 -85.097668 L 95.230805 -88.140501 C 98.11612 -89.172707 100.03903 -89.688139 101.00072 -89.687901 C 102.53229 -89.687522 103.81531 -89.13511 104.84797 -88.030699 C 105.88061 -86.926283 106.39621 -85.662063 106.39586 -84.237347 C 106.39504 -80.960492 102.1908 -78.113535 93.784365 -75.693592 C 90.578516 -74.768319 84.96977 -73.610267 76.95538 -72.223147 C 77.453132 -68.589988 78.340978 -63.836098 79.621772 -57.958815 L 82.557708 -43.745196 C 87.223219 -41.963143 94.043667 -38.917363 103.01834 -34.605366 C 105.01266 -33.465093 106.00791 -31.915176 106.00742 -29.956189 C 106.00707 -28.531466 105.49084 -27.248433 104.45764 -26.108916 C 103.42444 -25.005016 102.14311 -24.453238 100.61153 -24.453617 C 98.901871 -24.45404 92.401142 -27.145694 81.111572 -32.526803 C 80.18535 -31.921523 79.117278 -31.619094 77.906269 -31.619393 C 75.02121 -31.620107 73.169272 -33.366331 72.350924 -36.857097 C 64.729679 -40.919436 55.969841 -46.050342 46.069575 -52.250321 C 32.572448 -60.695125 25.822964 -65.949257 25.823475 -68.015099 z M 45.324781 -65.393084 L 69.949906 -50.107692 C 68.846818 -54.417741 67.511969 -60.953694 65.946946 -69.716106 L 45.324781 -65.393084 z M 58.524291 -137.59295 C 58.524635 -138.98205 59.040841 -140.21178 60.074032 -141.28006 C 61.107218 -142.34835 62.301023 -142.88108 63.654507 -142.88074 C 67.643724 -142.87975 69.637837 -138.65862 69.635748 -130.21715 C 69.635475 -129.11299 69.598944 -127.72324 69.527295 -126.04921 C 69.455646 -124.37517 69.419207 -123.36049 69.419119 -123.00431 L 69.577041 -113.97498 L 69.842384 -104.94561 C 71.445196 -104.94522 77.375251 -104.28506 87.632911 -102.96465 C 83.751755 -107.84528 81.813462 -114.34713 81.815472 -122.46804 C 81.817411 -130.30401 84.882045 -136.28677 91.009368 -140.41694 C 96.210464 -143.90622 102.83599 -145.65034 110.88566 -145.64835 C 120.50253 -145.64597 128.42525 -142.83025 134.65701 -137.20106 C 141.13805 -131.35809 144.37827 -123.64513 144.3759 -114.06389 C 144.37339 -103.94837 140.63063 -96.505597 133.14967 -91.734632 C 132.11658 -91.093763 131.12087 -90.772244 130.15919 -90.772482 C 128.77009 -90.772825 127.57656 -91.325209 126.57953 -92.429618 C 125.54687 -93.534034 125.02933 -94.781137 125.02967 -96.170236 C 125.03003 -97.630574 125.81475 -99.020139 127.38226 -100.33762 C 129.66229 -102.22481 131.12282 -103.64845 131.76418 -104.60998 C 133.33195 -106.92476 134.1171 -110.0772 134.11808 -114.06643 C 134.11961 -120.22835 131.76972 -125.34054 127.06914 -129.40216 C 122.58224 -133.28563 117.18748 -135.22687 110.88309 -135.22843 C 105.68286 -135.22971 101.46005 -134.37596 98.218388 -132.66711 C 94.121765 -130.4598 92.074422 -127.06023 92.073284 -122.4655 C 92.072341 -118.65437 92.587472 -115.53779 93.619799 -113.11551 C 94.438536 -111.19194 95.844937 -109.24973 97.83906 -107.29025 L 104.19504 -101.46446 C 105.79746 -99.896864 106.59855 -98.293698 106.59815 -96.655266 C 106.5978 -95.230548 106.09871 -94.019884 105.10115 -93.022824 C 104.06798 -92.025778 102.83996 -91.52729 101.41524 -91.527642 C 100.70288 -91.527819 97.533194 -91.814186 91.905684 -92.385465 C 80.68631 -93.599257 73.313179 -94.206472 69.786992 -94.207345 C 68.540363 -94.207654 67.186705 -93.888176 65.726208 -93.247412 C 64.2301 -92.642278 63.125841 -92.339853 62.413483 -92.340029 C 60.24078 -92.340567 59.15418 -94.210321 59.155105 -97.950211 C 59.155282 -98.66257 59.227916 -99.730551 59.370742 -101.15524 C 59.477958 -102.61555 59.531529 -103.7026 59.531705 -104.41496 C 59.532217 -106.48081 59.460614 -109.58017 59.319162 -113.71189 C 59.177716 -117.84361 59.108061 -120.94102 59.108572 -123.00686 C 59.10881 -123.96856 59.145359 -125.42873 59.217078 -127.3877 C 59.288798 -129.34668 59.323393 -130.80685 59.323631 -131.76853 C 59.323799 -132.44528 59.200318 -133.42577 58.951312 -134.70808 C 58.666681 -135.9904 58.524133 -136.95182 58.524291 -137.59295 z "
       transform="rotate(89.98582)" /></g></svg>
