<?xml version="1.0" encoding="UTF-8" standalone="no"?>
<!-- Created with Inkscape (http://www.inkscape.org/) -->

<svg
   width="45.02mm"
   height="45.02mm"
   viewBox="0 0 170.15433 170.15434"
   version="1.1"
   id="svg1"
   xml:space="preserve"
   sodipodi:docname="icon-nobg.svg"
   inkscape:version="1.3.2 (091e20e, 2023-11-25, custom)"
   xmlns:inkscape="http://www.inkscape.org/namespaces/inkscape"
   xmlns:sodipodi="http://sodipodi.sourceforge.net/DTD/sodipodi-0.dtd"
   xmlns="http://www.w3.org/2000/svg"
   xmlns:svg="http://www.w3.org/2000/svg"><sodipodi:namedview
     id="namedview1"
     pagecolor="#9f9f9f"
     bordercolor="#000000"
     borderopacity="0.61176471"
     inkscape:showpageshadow="2"
     inkscape:pageopacity="0.0"
     inkscape:pagecheckerboard="true"
     inkscape:deskcolor="#d1d1d1"
     inkscape:document-units="mm"
     showguides="true"
     inkscape:zoom="2.9257105"
     inkscape:cx="42.724665"
     inkscape:cy="97.583134"
     inkscape:window-width="1920"
     inkscape:window-height="1129"
     inkscape:window-x="-8"
     inkscape:window-y="-8"
     inkscape:window-maximized="1"
     inkscape:current-layer="layer1"><sodipodi:guide
       position="110.69274,488.93322"
       orientation="0,-1"
       id="guide1"
       inkscape:locked="false" /><sodipodi:guide
       position="145.97907,509.71832"
       orientation="0,-1"
       id="guide2"
       inkscape:locked="false" /><sodipodi:guide
       position="113.59299,525.91137"
       orientation="0,-1"
       id="guide3"
       inkscape:locked="false" /><sodipodi:guide
       position="141.6287,582.70786"
       orientation="0,-1"
       id="guide4"
       inkscape:locked="false" /><sodipodi:guide
       position="170.14779,637.08748"
       orientation="0,-1"
       id="guide7"
       inkscape:locked="false" /><sodipodi:guide
       position="170.14779,697.50928"
       orientation="1,0"
       id="guide8"
       inkscape:locked="false" /></sodipodi:namedview><defs
     id="defs1" /><g
     inkscape:label="Layer 1"
     inkscape:groupmode="layer"
     id="layer1"><g
       id="g1"
       transform="translate(0,-6.6848863)"><rect
         class="fil0"
         x="0"
         y="13.369768"
         width="170.15434"
         height="156.78458"
         rx="14.355141"
         ry="14.355141"
         id="rect2"
         style="clip-rule:evenodd;fill:#165279;fill-rule:evenodd;stroke-width:0.0750478;image-rendering:optimizeQuality;shape-rendering:geometricPrecision;text-rendering:geometricPrecision" /><g
         transform="matrix(0.07504778,0,0,0.07504778,-528.5987,-283.61909)"
         id="g2"
         style="clip-rule:evenodd;fill-rule:evenodd;image-rendering:optimizeQuality;shape-rendering:geometricPrecision;text-rendering:geometricPrecision">
   
  </g><g
         transform="matrix(0.07504778,0,0,0.07504778,-471.22497,-249.40028)"
         id="g3"
         style="clip-rule:evenodd;fill-rule:evenodd;image-rendering:optimizeQuality;shape-rendering:geometricPrecision;text-rendering:geometricPrecision">
   <g
   id="g4"><path
     d="m 8241.0828,5270.186 q -61.9037,0 -107.6586,-158.7964 -17.4945,-60.558 -43.7363,-211.9529 -68.6324,9.4201 -179.6553,33.6433 l -178.9824,37.0077 q -33.6433,88.1454 -115.0601,257.7077 -21.5318,37.6805 -58.5394,37.6805 -26.9147,0 -48.4464,-19.5131 -20.8588,-19.5131 -20.8588,-48.4464 0,-32.2975 101.6028,-245.5961 -11.4388,-17.4946 -11.4388,-40.372 0,-54.5022 65.9409,-69.9781 76.7068,-143.9934 193.7855,-331.0502 159.4693,-255.0163 198.4955,-255.0163 53.1565,0 72.6696,74.0153 l 42.3906,226.0831 100.257,467.642 38.3534,106.3128 q 19.5131,54.5022 19.5131,72.6696 0,28.9332 -20.8588,48.4464 -20.8589,19.5131 -47.7735,19.5131 z m -237.5218,-769.0861 -192.4397,310.1913 q 81.4168,-20.8588 246.9419,-50.4649 z"
     id="text2"
     class="fil1 fnt0"
     style="font-weight:normal;font-size:1378.03px;font-family:'Comic Sans MS';clip-rule:evenodd;fill:#fefefe;fill-rule:evenodd;image-rendering:optimizeQuality;shape-rendering:geometricPrecision;text-rendering:geometricPrecision"
     aria-label="A"
     transform="translate(-838.68188,-456.02492)" /><path
     d="m 7778.1508,5292.3906 q -191.094,0 -281.2581,-141.3019 -12.1116,-19.5132 -12.1116,-37.6805 0,-26.2418 20.8589,-45.0821 20.8589,-19.5131 47.1006,-19.5131 27.5875,0 52.4836,29.6061 35.6619,43.0635 53.8293,55.175 43.7363,29.6062 119.0973,29.6062 116.4059,0 193.1126,-88.8184 73.3424,-84.7811 73.3424,-203.8785 0,-98.2384 -32.2975,-159.4692 -41.7177,-77.3797 -128.5175,-77.3797 -71.9967,0 -117.7516,19.5132 -36.3347,15.4759 -73.3424,53.1564 l -73.3424,80.0711 q -29.6061,30.279 -60.558,30.279 -26.9146,0 -45.7549,-18.8403 -18.8402,-19.5131 -18.8402,-46.4278 0,-13.4573 10.7658,-119.7702 22.8775,-211.9528 22.8775,-278.5666 0,-23.5503 -12.1116,-51.1378 -11.4387,-28.2604 -11.4387,-41.7177 0,-41.0449 70.6509,-41.0449 13.4573,0 40.372,2.6915 27.5875,2.0186 41.0448,2.0186 39.0263,0 117.0788,-2.6915 78.0524,-2.6914 117.0787,-2.6914 18.1674,0 55.175,1.3457 37.0077,1.3457 55.175,1.3457 12.7845,0 37.0077,-4.71 24.2232,-5.383 36.3348,-5.383 26.2417,0 46.4277,19.5132 20.186,19.5131 20.186,45.082 0,75.361 -159.4693,75.361 -20.8588,0 -52.4835,-1.3457 -31.6248,-1.3457 -38.3534,-1.3457 l -113.7144,2.0186 -113.7144,3.3643 q 0,30.279 -24.8961,224.0644 92.1827,-73.3424 245.5962,-73.3424 148.0306,0 226.0831,115.733 65.9409,98.2385 65.9409,250.3062 0,181.6739 -106.3129,299.4255 -110.3501,122.4617 -291.3511,122.4617 z"
     id="text3"
     class="fil2 fnt0"
     style="font-weight:normal;font-size:1378.03px;font-family:'Comic Sans MS';fill:#ffffff"
     aria-label="5" /></g>
  </g></g></g></svg>
