<?xml version="1.0" encoding="UTF-8" standalone="no"?>
<!-- Created with Inkscape (http://www.inkscape.org/) -->

<svg
   width="45.02mm"
   height="45.02mm"
   viewBox="0 0 170.15433 170.15434"
   version="1.1"
   id="svg1"
   xml:space="preserve"
   inkscape:version="1.3.2 (091e20e, 2023-11-25, custom)"
   sodipodi:docname="icon-roundbg.svg"
   xmlns:inkscape="http://www.inkscape.org/namespaces/inkscape"
   xmlns:sodipodi="http://sodipodi.sourceforge.net/DTD/sodipodi-0.dtd"
   xmlns:xlink="http://www.w3.org/1999/xlink"
   xmlns="http://www.w3.org/2000/svg"
   xmlns:svg="http://www.w3.org/2000/svg"><sodipodi:namedview
     id="namedview1"
     pagecolor="#9f9f9f"
     bordercolor="#000000"
     borderopacity="0.61176471"
     inkscape:showpageshadow="2"
     inkscape:pageopacity="0.0"
     inkscape:pagecheckerboard="true"
     inkscape:deskcolor="#d1d1d1"
     inkscape:document-units="mm"
     showguides="true"
     inkscape:zoom="2.9257105"
     inkscape:cx="43.408259"
     inkscape:cy="69.555754"
     inkscape:window-width="1920"
     inkscape:window-height="1017"
     inkscape:window-x="1912"
     inkscape:window-y="-8"
     inkscape:window-maximized="1"
     inkscape:current-layer="layer1"><sodipodi:guide
       position="110.69274,488.93322"
       orientation="0,-1"
       id="guide1"
       inkscape:locked="false" /><sodipodi:guide
       position="145.97907,509.71832"
       orientation="0,-1"
       id="guide2"
       inkscape:locked="false" /><sodipodi:guide
       position="113.59299,525.91137"
       orientation="0,-1"
       id="guide3"
       inkscape:locked="false" /><sodipodi:guide
       position="141.6287,582.70786"
       orientation="0,-1"
       id="guide4"
       inkscape:locked="false" /><sodipodi:guide
       position="170.14779,637.08748"
       orientation="0,-1"
       id="guide7"
       inkscape:locked="false" /><sodipodi:guide
       position="170.14779,697.50928"
       orientation="1,0"
       id="guide8"
       inkscape:locked="false" /><sodipodi:guide
       position="85.073897,250.3945"
       orientation="1,0"
       id="guide5"
       inkscape:locked="false" /></sodipodi:namedview><defs
     id="defs1"><linearGradient
       id="linearGradient8"
       inkscape:collect="always"><stop
         style="stop-color:#f8f8f8;stop-opacity:1;"
         offset="0.73410881"
         id="stop8" /><stop
         style="stop-color:#cccccc;stop-opacity:1;"
         offset="1"
         id="stop9" /></linearGradient><linearGradient
       inkscape:collect="always"
       xlink:href="#linearGradient8"
       id="linearGradient9"
       x1="0"
       y1="85.077168"
       x2="170.15432"
       y2="85.077168"
       gradientUnits="userSpaceOnUse"
       gradientTransform="translate(0.02106505,-170.13329)" /></defs><g
     inkscape:label="Layer 1"
     inkscape:groupmode="layer"
     id="layer1"><rect
       style="fill:url(#linearGradient9);fill-opacity:1;stroke-width:2.00001;stroke-linecap:round;stroke-linejoin:round;paint-order:stroke fill markers"
       id="rect8"
       width="170.15433"
       height="170.15434"
       x="0.021064762"
       y="-170.13326"
       rx="188.97638"
       transform="rotate(89.98582)" /><g
       id="g31"
       transform="matrix(0.45876601,0,0,0.45876601,19.202151,9.9999999)"><path
         fill="#204d88"
         d="m 143.429,0 c 3.44,6.314 6.691,12.288 9.946,18.257 8.353,15.319 16.711,30.634 25.065,45.953 6.976,12.791 13.949,25.582 20.921,38.375 0.895,1.642 0.839,1.734 -1.161,1.732 -12.353,-0.007 -24.707,-0.005 -37.06,-0.063 -1.209,-0.006 -1.893,0.29 -2.473,1.423 -7.943,15.532 -15.943,31.032 -23.924,46.545 -13.191,25.645 -26.38,51.29 -39.566,76.938 -4.887,9.509 -9.774,19.016 -14.627,28.544 -0.503,0.984 -1.041,1.495 -2.252,1.495 C 52.474,259.172 26.649,259.184 0.825,259.19 0.653,259.19 0.482,259.135 0,259.055 47.788,172.746 95.514,86.543 143.429,0 Z"
         id="path4" /><path
         fill="#204d88"
         d="m 181.832,259.175 c -18.586,0 -37.172,0 -55.759,0 -2.117,0 -2.153,-0.041 -1.219,-1.988 5.052,-10.537 10.127,-21.067 15.148,-31.621 0.455,-0.957 1.013,-1.242 2.023,-1.238 26.116,0.029 52.229,0.043 78.344,0.008 1.388,0 2.073,0.495 2.682,1.705 5.251,10.437 10.573,20.837 15.866,31.253 0.921,1.814 0.897,1.866 -1.15,1.866 -18.646,0.009 -37.29,0.006 -55.936,0.006 0.001,0.003 0.001,0.006 0.001,0.009 z"
         id="path9" /><path
         fill="#204d88"
         d="m 184.884,141.434 c 2.079,4.216 4,8.097 5.905,11.986 5.221,10.652 10.433,21.307 15.65,31.959 1.912,3.904 3.808,7.814 5.758,11.699 0.542,1.083 0.347,1.387 -0.878,1.386 -17.468,-0.024 -34.935,-0.026 -52.403,0.004 -1.718,0.003 -1.087,-0.797 -0.705,-1.594 4.601,-9.581 9.205,-19.162 13.805,-28.744 3.991,-8.311 7.977,-16.625 11.968,-24.937 0.225,-0.471 0.474,-0.93 0.9,-1.759 z"
         id="path11" /></g></g></svg>
