<?xml version="1.0" encoding="UTF-8" standalone="no"?>
<!-- Created with Inkscape (http://www.inkscape.org/) -->

<svg
   width="45.02mm"
   height="45.02mm"
   viewBox="0 0 170.15433 170.15434"
   version="1.1"
   id="svg1"
   xml:space="preserve"
   inkscape:version="1.3.2 (091e20e, 2023-11-25, custom)"
   sodipodi:docname="icon-squarebg.svg"
   xmlns:inkscape="http://www.inkscape.org/namespaces/inkscape"
   xmlns:sodipodi="http://sodipodi.sourceforge.net/DTD/sodipodi-0.dtd"
   xmlns:xlink="http://www.w3.org/1999/xlink"
   xmlns="http://www.w3.org/2000/svg"
   xmlns:svg="http://www.w3.org/2000/svg"><sodipodi:namedview
     id="namedview1"
     pagecolor="#9f9f9f"
     bordercolor="#000000"
     borderopacity="0.61176471"
     inkscape:showpageshadow="2"
     inkscape:pageopacity="0.0"
     inkscape:pagecheckerboard="true"
     inkscape:deskcolor="#d1d1d1"
     inkscape:document-units="mm"
     showguides="true"
     inkscape:zoom="2.9257105"
     inkscape:cx="38.2813"
     inkscape:cy="113.98941"
     inkscape:window-width="1920"
     inkscape:window-height="1017"
     inkscape:window-x="-8"
     inkscape:window-y="-8"
     inkscape:window-maximized="1"
     inkscape:current-layer="layer1"><sodipodi:guide
       position="110.69274,488.93322"
       orientation="0,-1"
       id="guide1"
       inkscape:locked="false" /><sodipodi:guide
       position="145.97907,509.71832"
       orientation="0,-1"
       id="guide2"
       inkscape:locked="false" /><sodipodi:guide
       position="113.59299,525.91137"
       orientation="0,-1"
       id="guide3"
       inkscape:locked="false" /><sodipodi:guide
       position="141.6287,582.70786"
       orientation="0,-1"
       id="guide4"
       inkscape:locked="false" /><sodipodi:guide
       position="170.14779,637.08748"
       orientation="0,-1"
       id="guide7"
       inkscape:locked="false" /><sodipodi:guide
       position="170.14779,697.50928"
       orientation="1,0"
       id="guide8"
       inkscape:locked="false" /><sodipodi:guide
       position="85.073897,122.78365"
       orientation="1,0"
       id="guide5"
       inkscape:locked="false" /></sodipodi:namedview><defs
     id="defs1"><linearGradient
       id="linearGradient8"
       inkscape:collect="always"><stop
         style="stop-color:#f9f9f9;stop-opacity:1;"
         offset="0.72183055"
         id="stop8" /><stop
         style="stop-color:#cacaca;stop-opacity:1;"
         offset="1"
         id="stop9" /></linearGradient><linearGradient
       inkscape:collect="always"
       xlink:href="#linearGradient8"
       id="linearGradient9"
       x1="0"
       y1="85.077168"
       x2="170.15432"
       y2="85.077168"
       gradientUnits="userSpaceOnUse"
       gradientTransform="matrix(0.99984696,0,0,0.99984394,0.03433192,-170.12001)" /></defs><g
     inkscape:label="Layer 1"
     inkscape:groupmode="layer"
     id="layer1"><rect
       style="fill:url(#linearGradient9);fill-opacity:1;stroke-width:1.99968;stroke-linecap:round;stroke-linejoin:round;paint-order:stroke fill markers"
       id="rect8"
       width="170.1283"
       height="170.12778"
       x="0.034333598"
       y="-170.12001"
       rx="31.395414"
       transform="rotate(89.98582)" /><path
       d="m 78.785181,107.7457 c -3.476953,0 -6.500391,-4.45957 -9.070313,-13.378714 -0.982617,-3.401367 -2.210889,-9.353759 -3.684814,-17.857177 -3.854883,0.529101 -8.900244,1.473925 -15.136084,2.834472 l -15.079394,3.11792 c -1.889649,4.950879 -5.120948,12.188232 -9.693897,21.712059 -1.209375,2.11641 -2.853369,3.17461 -4.931982,3.17461 -1.511719,0 -2.872266,-0.548 -4.081641,-1.64399 -1.171582,-1.096 -1.757373,-2.45655 -1.757373,-4.08164 0,-1.814065 2.853369,-8.711283 8.560108,-20.691654 -0.642481,-0.982617 -0.963721,-2.116406 -0.963721,-3.401367 0,-3.061231 1.851855,-5.026465 5.555566,-5.895703 4.308399,-8.087695 9.750586,-17.384766 16.326563,-27.891211 8.956933,-14.323535 14.531396,-21.485302 16.723388,-21.485302 2.985645,0 5.026465,2.078613 6.122461,6.23584 l 3.571435,19.047656 8.446729,39.399169 3.231299,8.956933 c 1.095996,3.061233 1.643994,5.102049 1.643994,6.122459 0,1.6251 -0.585791,2.98565 -1.757373,4.08164 -1.171582,1.096 -2.513232,1.644 -4.024951,1.644 z M 58.773804,42.949653 42.560621,69.08349 C 47.13357,67.911908 54.068579,66.494672 63.36565,64.831782 Z"
       id="text4"
       style="font-size:116.1px;font-family:'Comic Sans MS';-inkscape-font-specification:'Comic Sans MS';stroke-width:2.7211;stroke-linecap:round;stroke-linejoin:round;paint-order:stroke fill markers"
       aria-label="A"
       sodipodi:nodetypes="scccccscscsccsccccssscccc" /><path
       d="m 116.04809,142.1687 c -10.73321,0 -18.631937,-3.96826 -23.696195,-11.90479 -0.680273,-1.09599 -1.02041,-2.1542 -1.02041,-3.17461 0,-1.47393 0.585791,-2.73999 1.757373,-3.79819 1.171582,-1.096 2.494336,-1.644 3.968262,-1.644 1.549511,0 3.02344,0.83145 4.42178,2.49434 2.00303,2.41875 3.51474,3.96826 4.53515,4.64853 2.45655,1.66289 5.80123,2.49434 10.03404,2.49434 6.53818,0 11.96147,-2.49434 16.26987,-7.48301 4.11943,-4.76191 6.17915,-10.48755 6.17915,-17.1769 0,-5.51777 -0.90703,-9.996242 -2.72109,-13.435402 -2.34317,-4.346191 -5.9524,-6.519287 -10.82769,-6.519287 -4.04385,0 -7.35073,0.547998 -9.92065,1.643994 -2.04082,0.869239 -4.10054,2.362061 -6.17915,4.478467 l -6.17915,6.746045 c -1.66289,1.700683 -3.363578,2.551023 -5.102055,2.551023 -1.511719,0 -2.79668,-0.5291 -3.854883,-1.5873 -1.058203,-1.095998 -1.587305,-2.399856 -1.587305,-3.911575 0,-0.755859 0.302344,-4.119433 0.907031,-10.090722 1.284961,-11.904785 1.927442,-19.72793 1.927442,-23.469434 0,-1.322753 -0.340137,-2.758886 -1.02041,-4.308398 -0.642481,-1.587305 -0.963721,-2.758887 -0.963721,-3.514746 0,-2.305371 1.984131,-3.458057 5.952393,-3.458057 0.755859,0 1.889648,0.07559 3.401368,0.226758 1.54951,0.113379 2.7022,0.170069 3.45806,0.170069 2.19199,0 5.47997,-0.07559 9.86396,-0.226758 4.38399,-0.151172 7.67197,-0.226758 9.86396,-0.226758 1.02041,0 2.56993,0.03779 4.64854,0.113379 2.07861,0.07559 3.62812,0.113379 4.64853,0.113379 0.71807,0 1.75737,-0.132275 3.11792,-0.396826 1.36055,-0.302344 2.38097,-0.453516 3.06124,-0.453516 1.47392,0 2.77778,0.547998 3.91157,1.643994 1.13379,1.095996 1.70068,2.36206 1.70068,3.798193 0,4.232813 -4.47847,6.349219 -13.4354,6.349219 -1.17158,0 -2.64551,-0.03779 -4.42178,-0.113379 -1.77627,-0.07559 -2.85337,-0.113379 -3.2313,-0.113379 l -9.58051,0.170069 -9.58052,0.283447 c 0,0.879357 -0.18692,2.986352 -0.56077,6.320985 -0.34918,3.114577 -0.86143,7.300111 -1.53674,12.556603 5.17764,-4.119434 12.07486,-6.179151 20.69165,-6.179151 8.31445,0 14.66367,3.250195 19.04766,9.750586 3.70371,5.517773 5.55556,12.547266 5.55556,21.088478 0,10.2041 -2.98564,18.61303 -8.95693,25.2268 -6.19805,6.87833 -14.38022,10.31749 -24.54653,10.31749 z"
       id="text3"
       style="font-size:116.1px;font-family:'Comic Sans MS';-inkscape-font-specification:'Comic Sans MS';stroke-width:2.7211;stroke-linecap:round;stroke-linejoin:round;paint-order:stroke fill markers"
       aria-label="5"
       sodipodi:nodetypes="scscsccscscscccscscscsscssssscssssscccscscscs" /></g></svg>
